#!OML:ASF H:\Dans Jumps\Project 1\Capture day 1\Session 1\subject.ASF
:FULLY-SPECIFIED
:DEGREES
435
root 0.159816 17.3241 -6.40662 8.07923 -0.290843 -0.631443
lowerback 3.45158 0.155756 -0.712741
upperback 5.53213 0.164864 1.28113
thorax 3.75869 0.0252554 1.71985
lowerneck -12.4243 0.169469 -1.22823
upperneck 35.0255 0.403382 0.530844
head 13.9934 0.0858636 0.493771
rclavicle 4.96962e-016 2.38542e-015
rhumerus -43.0249 -23.1185 -65.8697
rradius 24.459
rwrist 34.9646
rhand -18.7467 -22.5507
rfingers 7.12502
rthumb 7.54967 -52.3959
lclavicle 4.96962e-016 2.38542e-015
lhumerus -36.594 3.39548 79.9868
lradius 20.4243
lwrist 14.1548
lhand -30.2739 -11.9534
lfingers 7.12502
lthumb -3.58197 17.9962
rfemur -21.9423 -2.98458 19.0162
rtibia 35.4006
rfoot -19.8836 -1.44095
rtoes 6.65228
lfemur -20.6955 5.66068 -19.0323
ltibia 32.1084
lfoot -16.0223 9.6396
ltoes 1.1224
436
root 0.158931 17.3241 -6.40583 8.07814 -0.302697 -0.629822
lowerback 3.44391 0.155145 -0.717591
upperback 5.5374 0.163962 1.28127
thorax 3.76855 0.024507 1.72277
lowerneck -12.4179 0.174118 -1.22511
upperneck 35.036 0.410641 0.526608
head 13.9966 0.0887305 0.492643
rclavicle 1.59028e-015 -9.93923e-016
rhumerus -42.9988 -23.0974 -65.8962
rradius 24.4602
rwrist 34.94
rhand -18.6998 -22.5664
rfingers 7.12502
rthumb 7.5949 -52.4101
lclavicle 1.59028e-015 -9.93923e-016
lhumerus -36.6159 3.40792 79.9697
lradius 20.4175
lwrist 14.162
lhand -30.2755 -11.9435
lfingers 7.12502
lthumb -3.58354 18.0061
rfemur -21.9392 -2.98765 19.017
rtibia 35.3993
rfoot -19.8858 -1.4262
rtoes 6.64875
lfemur -20.6853 5.66329 -19.031
ltibia 32.102
lfoot -16.023 9.64793
ltoes 1.13594
437
root 0.158125 17.3242 -6.40513 8.07726 -0.313611 -0.627207
lowerback 3.43555 0.154874 -0.72358
upperback 5.54316 0.163513 1.28106
thorax 3.77929 0.023939 1.72597
lowerneck -12.4135 0.176676 -1.22087
upperneck 35.0453 0.414803 0.521629
head 13.9998 0.0903225 0.490547
rclavicle -2.78299e-015 -3.18055e-015
rhumerus -42.9734 -23.0841 -65.9167
rradius 24.46
rwrist 34.9317
rhand -18.6725 -22.5727
rfingers 7.12502
rthumb 7.62128 -52.4153
lclavicle -2.78299e-015 -3.18055e-015
lhumerus -36.6361 3.4162 79.9554
lradius 20.407
lwrist 14.1654
lhand -30.2796 -11.9302
lfingers 7.12502
lthumb -3.5875 18.0194
rfemur -21.9356 -2.98998 19.0164
rtibia 35.3967
rfoot -19.8873 -1.41125
rtoes 6.654
lfemur -20.6748 5.66818 -19.0311
ltibia 32.0943
lfoot -16.0258 9.65338
ltoes 1.15618
438
root 0.157398 17.3243 -6.40456 8.07628 -0.32409 -0.625094
lowerback 3.42858 0.155133 -0.728232
upperback 5.54752 0.163813 1.28013
thorax 3.78777 0.0238371 1.72767
lowerneck -12.4086 0.178935 -1.21757
upperneck 35.0562 0.417788 0.519507
head 14.0036 0.0916629 0.489596
rclavicle 1.09332e-015 -5.76476e-015
rhumerus -42.9519 -23.0754 -65.9337
rradius 24.4633
rwrist 34.9273
rhand -18.654 -22.5655
rfingers 7.12502
rthumb 7.63909 -52.4075
lclavicle 1.09332e-015 -5.76476e-015
lhumerus -36.6562 3.42551 79.939
lradius 20.3902
lwrist 14.1546
lhand -30.287 -11.9184
lfingers 7.12502
lthumb -3.59462 18.031
rfemur -21.9315 -2.99034 19.0158
rtibia 35.3925
rfoot -19.8873 -1.39736
rtoes 6.66574
lfemur -20.6646 5.67563 -19.0311
ltibia 32.0863
lfoot -16.0295 9.65612
ltoes 1.18147
439
root 0.156728 17.3245 -6.40405 8.07459 -0.333658 -0.625203
lowerback 3.42345 0.156003 -0.730876
upperback 5.55092 0.164927 1.27995
thorax 3.79417 0.0242232 1.72901
lowerneck -12.4066 0.18113 -1.2125
upperneck 35.0711 0.42079 0.515925
head 14.0099 0.0930377 0.487783
rclavicle -2.08724e-015 -1.35174e-014
rhumerus -42.9386 -23.0728 -65.9421
rradius 24.4645
rwrist 34.9564
rhand -18.6674 -22.5359
rfingers 7.12502
rthumb 7.62614 -52.3784
lclavicle -2.08724e-015 -1.35174e-014
lhumerus -36.6779 3.4378 79.9211
lradius 20.371
lwrist 14.1251
lhand -30.2886 -11.8972
lfingers 7.12502
lthumb -3.59616 18.0522
rfemur -21.9256 -2.98751 19.0175
rtibia 35.3865
rfoot -19.8867 -1.38757
rtoes 6.6768
lfemur -20.654 5.68455 -19.0285
ltibia 32.0781
lfoot -16.034 9.65568
ltoes 1.20876
440
root 0.156117 17.3248 -6.40362 8.07292 -0.340916 -0.626437
lowerback 3.41902 0.156247 -0.732383
upperback 5.55401 0.165201 1.28042
thorax 3.79988 0.0242277 1.73037
lowerneck -12.4002 0.183454 -1.2152
upperneck 35.0818 0.423472 0.519743
head 14.0133 0.0942614 0.490243
rclavicle 1.19271e-015 4.96962e-015
rhumerus -42.9304 -23.068 -65.9481
rradius 24.4634
rwrist 35.0206
rhand -18.7273 -22.4875
rfingers 7.12502
rthumb 7.56837 -52.3321
lclavicle 1.19271e-015 4.96962e-015
lhumerus -36.6979 3.45842 79.8999
lradius 20.3489
lwrist 14.0781
lhand -30.2802 -11.8512
lfingers 7.12502
lthumb -3.58808 18.0984
rfemur -21.9188 -2.98281 19.0204
rtibia 35.3792
rfoot -19.8846 -1.3823
rtoes 6.68887
lfemur -20.6446 5.6937 -19.025
ltibia 32.07
lfoot -16.0365 9.65382
ltoes 1.22967
441
root 0.15553 17.3252 -6.40337 8.0724 -0.345404 -0.628362
lowerback 3.41619 0.155678 -0.733273
upperback 5.55526 0.164393 1.28149
thorax 3.80281 0.023734 1.73199
lowerneck -12.3997 0.187857 -1.21485
upperneck 35.0988 0.429966 0.519417
head 14.0208 0.0969464 0.49113
rclavicle -8.94531e-016 -8.34896e-015
rhumerus -42.9256 -23.0528 -65.9587
rradius 24.4747
rwrist 35.0581
rhand -18.7823 -22.4526
rfingers 7.12502
rthumb 7.51527 -52.2991
lclavicle -8.94531e-016 -8.34896e-015
lhumerus -36.719 3.48749 79.8742
lradius 20.3258
lwrist 14.0139
lhand -30.2626 -11.7928
lfingers 7.12502
lthumb -3.57109 18.1571
rfemur -21.9137 -2.9766 19.0241
rtibia 35.3716
rfoot -19.8813 -1.38192
rtoes 6.69684
lfemur -20.638 5.70188 -19.021
ltibia 32.0617
lfoot -16.0364 9.64994
ltoes 1.24285
442
root 0.154997 17.3255 -6.40327 8.07272 -0.348099 -0.63016
lowerback 3.41438 0.153733 -0.735442
upperback 5.55593 0.161703 1.28414
thorax 3.80463 0.0222263 1.73596
lowerneck -12.399 0.192964 -1.21918
upperneck 35.1132 0.438624 0.51957
head 14.0271 0.100018 0.493355
rclavicle -5.96354e-016 4.37326e-015
rhumerus -42.9176 -23.0204 -65.9777
rradius 24.4996
rwrist 35.0495
rhand -18.8059 -22.4455
rfingers 7.12502
rthumb 7.49255 -52.2928
lclavicle -5.96354e-016 4.37326e-015
lhumerus -36.7386 3.52701 79.8471
lradius 20.3006
lwrist 13.9396
lhand -30.2383 -11.717
lfingers 7.12502
lthumb -3.54755 18.2332
rfemur -21.9103 -2.96831 19.0275
rtibia 35.3644
rfoot -19.8779 -1.38591
rtoes 6.70095
lfemur -20.6339 5.70893 -19.0175
ltibia 32.0536
lfoot -16.033 9.64603
ltoes 1.24284
443
root 0.154615 17.3259 -6.40339 8.075 -0.348838 -0.628453
lowerback 3.4118 0.150517 -0.739998
upperback 5.55682 0.157322 1.2861
thorax 3.80717 0.0197918 1.74056
lowerneck -12.4014 0.197033 -1.22172
upperneck 35.1245 0.447109 0.514553
head 14.0327 0.102575 0.49314
rclavicle -8.94531e-016 7.7526e-015
rhumerus -42.9042 -22.9831 -66.0007
rradius 24.5426
rwrist 34.9625
rhand -18.7672 -22.4204
rfingers 7.12502
rthumb 7.52986 -52.2664
lclavicle -8.94531e-016 7.7526e-015
lhumerus -36.7561 3.57114 79.8198
lradius 20.277
lwrist 13.865
lhand -30.2192 -11.6474
lfingers 7.12502
lthumb -3.52913 18.3031
rfemur -21.9101 -2.96181 19.0266
rtibia 35.3578
rfoot -19.8744 -1.3897
rtoes 6.71122
lfemur -20.6331 5.71286 -19.0187
ltibia 32.0455
lfoot -16.0284 9.64239
ltoes 1.24153
444
root 0.154367 17.3261 -6.4037 8.07783 -0.347909 -0.628078
lowerback 3.41092 0.146417 -0.741885
upperback 5.55684 0.151782 1.28835
thorax 3.80788 0.0168951 1.74395
lowerneck -12.4059 0.201101 -1.22137
upperneck 35.1353 0.456262 0.50545
head 14.0385 0.105252 0.490871
rclavicle 1.59028e-015 5.96354e-016
rhumerus -42.8861 -22.9368 -66.0299
rradius 24.6037
rwrist 34.7923
rhand -18.6596 -22.39
rfingers 7.12502
rthumb 7.63372 -52.2323
lclavicle 1.59028e-015 5.96354e-016
lhumerus -36.7737 3.61825 79.7926
lradius 20.2565
lwrist 13.7963
lhand -30.2032 -11.5705
lfingers 7.12502
lthumb -3.5137 18.3803
rfemur -21.911 -2.9547 19.0265
rtibia 35.3513
rfoot -19.8717 -1.39311
rtoes 6.72825
lfemur -20.6341 5.71495 -19.0191
ltibia 32.0381
lfoot -16.0229 9.6384
ltoes 1.23926
445
root 0.154299 17.3264 -6.40409 8.08001 -0.345028 -0.627596
lowerback 3.41069 0.141519 -0.742179
upperback 5.55701 0.145206 1.29006
thorax 3.80843 0.0135577 1.74589
lowerneck -12.4067 0.203349 -1.21893
upperneck 35.1397 0.463275 0.492919
head 14.0407 0.106863 0.486469
rclavicle -9.93923e-016 -1.98785e-015
rhumerus -42.8657 -22.8988 -66.0537
rradius 24.6658
rwrist 34.5941
rhand -18.5162 -22.3461
rfingers 7.12502
rthumb 7.77211 -52.1833
lclavicle -9.93923e-016 -1.98785e-015
lhumerus -36.7915 3.65805 79.77
lradius 20.2416
lwrist 13.7497
lhand -30.1938 -11.4986
lfingers 7.12502
lthumb -3.50464 18.4523
rfemur -21.9109 -2.94902 19.0256
rtibia 35.3445
rfoot -19.8702 -1.39624
rtoes 6.7466
lfemur -20.635 5.71403 -19.0199
ltibia 32.0315
lfoot -16.018 9.63528
ltoes 1.23419
